# xmcd
#
# Track frame offsets:
#	150
#	25491
#	47143
#	64192
#	80863
#	99952
#	117240
#	141924
#	175123
#	197321
#	209612
#	227255
#	245033
#	257308
#	272682
#	284651
#	304347
#
# Disc length: 4373 seconds
#
# Revision: 0
# Processed by: cddbd v1.4PL0 Copyright (c) Steve Scherf et al.
# Submitted via: dBpowerAMP V4.0
#
DISCID=f7111311
DTITLE=Various Artist - Blues Collection
DYEAR=1900
DGENRE=Blues
TTITLE0=Foolish Love - Bill House
TTITLE1=All You Need Is The Po - The Renovators
TTITLE2=Route 66 - The Swing-O-Matics
TTITLE3=Back To Texas - Lightning Red
TTITLE4=Big Time - Lightning Red
TTITLE5=Full Grown Man - Bill House
TTITLE6=Angels Eyes - The Swing-O-Matics
TTITLE7=If You See Me - Lightning Red
TTITLE8=Born That Way - The Renovators
TTITLE9=Talkin Dirty To Me - The Swing-O-Matics
TTITLE10=Nocturne In Harlem - Bill House
TTITLE11=Big City Blues - Lightning Red
TTITLE12=Come Fly With Me - The Swing-O-Matics
TTITLE13=Four Letter Word - The Renovators
TTITLE14=Lisas Blues - Bill House
TTITLE15=Charade - The Swing-O-Matics
TTITLE16=Dont You Want A Walrus - The Renovators
EXTD=Album Blues Music (MP3.COM)
EXTT0=
EXTT1=
EXTT2=
EXTT3=
EXTT4=
EXTT5=
EXTT6=
EXTT7=
EXTT8=
EXTT9=
EXTT10=
EXTT11=
EXTT12=
EXTT13=
EXTT14=
EXTT15=
EXTT16=
PLAYORDER=
